<svg xmlns="http://www.w3.org/2000/svg" viewBox="0 0 100 100" width="512" height="512">
  <defs>
    <filter id="burnt-cheese" x="0%" y="0%" width="100%" height="100%">
      <feTurbulence type="fractalNoise" baseFrequency="0.85" numOctaves="3" result="noise"/>
      <feColorMatrix type="matrix"
        values="0 0 0 0 0
                0 0 0 0 0
                0 0 0 0 0
                0 0 0 18 -10"
        in="noise" result="speckles-alpha"/>
      <feFlood floodColor="#92400e" floodOpacity="0.5" result="brown-flood"/>
      <feComposite operator="in" in="brown-flood" in2="speckles-alpha" result="colored-speckles"/>
      <feComposite operator="over" in="colored-speckles" in2="SourceGraphic"/>
    </filter>
  </defs>

  <!-- Background circle (so maskable icons look good) -->
  <circle cx="50" cy="50" r="50" fill="#1c1917"/>

  <!-- Rotate the whole pie -30deg so first slice is centered at top -->
  <g transform="rotate(-30 50 50)">

    <!-- Slice 0: rot 0° -->
    <g transform="rotate(0 50 50)">
      <path d="M 50 50 L 50 2 A 48 48 0 0 1 91.6 26 Z" fill="#b45309" stroke="#78350f" stroke-width="1"/>
      <path d="M 50 50 L 50 9 A 41 41 0 0 1 85.5 29.5 Z" fill="#fcd34d" filter="url(#burnt-cheese)"/>
      <circle cx="62" cy="25" r="3.5" fill="#ef4444" opacity="0.9"/>
      <circle cx="56" cy="38" r="3.5" fill="#ef4444" opacity="0.9"/>
      <circle cx="70" cy="36" r="2.5" fill="#ef4444" opacity="0.9"/>
      <circle cx="65" cy="18" r="2.8" fill="#ef4444" opacity="0.9"/>
    </g>

    <!-- Slice 1: rot 60° -->
    <g transform="rotate(60 50 50)">
      <path d="M 50 50 L 50 2 A 48 48 0 0 1 91.6 26 Z" fill="#b45309" stroke="#78350f" stroke-width="1"/>
      <path d="M 50 50 L 50 9 A 41 41 0 0 1 85.5 29.5 Z" fill="#fcd34d" filter="url(#burnt-cheese)"/>
      <circle cx="65" cy="30" r="3.5" fill="#ef4444" opacity="0.9"/>
      <circle cx="54" cy="35" r="3.5" fill="#ef4444" opacity="0.9"/>
      <circle cx="72" cy="22" r="2.5" fill="#ef4444" opacity="0.9"/>
      <circle cx="60" cy="20" r="3.0" fill="#ef4444" opacity="0.9"/>
    </g>

    <!-- Slice 2: rot 120° -->
    <g transform="rotate(120 50 50)">
      <path d="M 50 50 L 50 2 A 48 48 0 0 1 91.6 26 Z" fill="#b45309" stroke="#78350f" stroke-width="1"/>
      <path d="M 50 50 L 50 9 A 41 41 0 0 1 85.5 29.5 Z" fill="#fcd34d" filter="url(#burnt-cheese)"/>
      <circle cx="60" cy="22" r="3.5" fill="#ef4444" opacity="0.9"/>
      <circle cx="58" cy="40" r="3.5" fill="#ef4444" opacity="0.9"/>
      <circle cx="75" cy="32" r="2.5" fill="#ef4444" opacity="0.9"/>
      <circle cx="66" cy="16" r="2.8" fill="#ef4444" opacity="0.9"/>
    </g>

    <!-- Slice 3: rot 180° -->
    <g transform="rotate(180 50 50)">
      <path d="M 50 50 L 50 2 A 48 48 0 0 1 91.6 26 Z" fill="#b45309" stroke="#78350f" stroke-width="1"/>
      <path d="M 50 50 L 50 9 A 41 41 0 0 1 85.5 29.5 Z" fill="#fcd34d" filter="url(#burnt-cheese)"/>
      <circle cx="64" cy="26" r="3.5" fill="#ef4444" opacity="0.9"/>
      <circle cx="53" cy="36" r="3.5" fill="#ef4444" opacity="0.9"/>
      <circle cx="68" cy="42" r="2.5" fill="#ef4444" opacity="0.9"/>
      <circle cx="62" cy="15" r="2.8" fill="#ef4444" opacity="0.9"/>
    </g>

    <!-- Slice 4: rot 240° -->
    <g transform="rotate(240 50 50)">
      <path d="M 50 50 L 50 2 A 48 48 0 0 1 91.6 26 Z" fill="#b45309" stroke="#78350f" stroke-width="1"/>
      <path d="M 50 50 L 50 9 A 41 41 0 0 1 85.5 29.5 Z" fill="#fcd34d" filter="url(#burnt-cheese)"/>
      <circle cx="66" cy="32" r="3.5" fill="#ef4444" opacity="0.9"/>
      <circle cx="55" cy="28" r="3.5" fill="#ef4444" opacity="0.9"/>
      <circle cx="72" cy="40" r="2.5" fill="#ef4444" opacity="0.9"/>
      <circle cx="58" cy="18" r="3.0" fill="#ef4444" opacity="0.9"/>
    </g>

    <!-- Slice 5: rot 300° -->
    <g transform="rotate(300 50 50)">
      <path d="M 50 50 L 50 2 A 48 48 0 0 1 91.6 26 Z" fill="#b45309" stroke="#78350f" stroke-width="1"/>
      <path d="M 50 50 L 50 9 A 41 41 0 0 1 85.5 29.5 Z" fill="#fcd34d" filter="url(#burnt-cheese)"/>
      <circle cx="61" cy="24" r="3.5" fill="#ef4444" opacity="0.9"/>
      <circle cx="57" cy="38" r="3.5" fill="#ef4444" opacity="0.9"/>
      <circle cx="74" cy="28" r="2.5" fill="#ef4444" opacity="0.9"/>
      <circle cx="68" cy="18" r="3.0" fill="#ef4444" opacity="0.9"/>
    </g>

  </g>
</svg>
